<svg width="250" height="150" viewBox="0 0 250 150" fill="none" xmlns="http://www.w3.org/2000/svg">
<path d="M27.392 113.96C26.176 113.96 25.344 113.608 24.896 112.904C24.448 112.2 24.224 111.432 24.224 110.6C24.224 106.632 24.608 102.088 25.376 96.968C26.208 91.848 27.2 86.76 28.352 81.704C29.376 77.416 30.496 73.416 31.712 69.704C32.992 65.992 34.112 62.952 35.072 60.584C36.48 57.256 38.08 54.728 39.872 53C41.728 51.208 43.872 50.312 46.304 50.312C48.096 50.312 49.696 50.92 51.104 52.136C52.512 53.288 53.344 55.4 53.6 58.472C53.984 62.184 54.432 65.928 54.944 69.704C55.456 73.48 56.032 76.936 56.672 80.072C57.312 83.144 57.984 85.512 58.688 87.176C59.264 88.648 60.096 89.384 61.184 89.384C62.4 89.384 63.456 88.616 64.352 87.08C65.184 85.672 66.08 83.752 67.04 81.32C68 78.888 68.928 76.328 69.824 73.64C70.784 70.888 71.616 68.392 72.32 66.152C73.152 63.72 74.08 61.288 75.104 58.856C76.192 56.36 77.568 54.312 79.232 52.712C80.896 51.048 82.976 50.216 85.472 50.216C87.776 50.216 89.408 51.016 90.368 52.616C91.392 54.152 91.904 56.616 91.904 60.008C91.904 62.632 91.808 65.384 91.616 68.264C91.552 69.928 91.456 71.656 91.328 73.448C91.264 75.176 91.232 76.968 91.232 78.824C91.232 81.704 91.36 84.744 91.616 87.944C91.936 91.144 92.512 94.152 93.344 96.968C94.24 99.784 95.552 102.152 97.28 104.072C97.792 104.52 98.24 105.032 98.624 105.608C99.072 106.184 99.296 106.824 99.296 107.528C99.296 109.128 98.432 110.6 96.704 111.944C95.04 113.224 93.12 113.864 90.944 113.864C88.96 113.864 87.488 113.224 86.528 111.944C85.568 110.664 84.8 108.936 84.224 106.76C83.584 104.072 83.136 101.192 82.88 98.12C82.624 95.048 82.496 92.072 82.496 89.192C82.496 84.584 82.656 80.36 82.976 76.52C83.36 72.616 83.552 69.736 83.552 67.88C83.552 66.856 83.456 66.12 83.264 65.672C83.072 65.16 82.592 64.904 81.824 64.904C80.928 64.904 80.16 65.32 79.52 66.152C78.944 66.92 78.464 68.008 78.08 69.416C77.248 72.104 76.32 74.984 75.296 78.056C74.272 81.128 73.184 84.136 72.032 87.08C70.944 90.024 69.76 92.648 68.48 94.952C67.008 97.64 65.408 99.464 63.68 100.424C62.016 101.32 60.32 101.768 58.592 101.768C55.904 101.768 53.856 100.936 52.448 99.272C51.104 97.544 50.112 95.656 49.472 93.608C48.64 90.856 47.872 87.272 47.168 82.856C46.464 78.376 45.952 73.352 45.632 67.784C45.504 65.416 44.736 64.232 43.328 64.232C41.792 64.232 40.576 65.384 39.68 67.688C38.912 69.992 38.176 72.712 37.472 75.848C36.768 78.92 36.192 82.152 35.744 85.544C35.36 88.872 35.168 92.168 35.168 95.432C35.168 98.184 35.264 100.584 35.456 102.632C35.712 104.68 35.84 106.6 35.84 108.392C35.84 109.672 35.328 110.728 34.304 111.56C33.344 112.392 32.192 113 30.848 113.384C29.504 113.768 28.352 113.96 27.392 113.96ZM117.492 114.248C114.292 114.248 111.796 113.32 110.004 111.464C108.276 109.608 107.412 106.92 107.412 103.4C107.412 100.904 107.764 98.344 108.468 95.72C108.788 94.632 109.044 93.544 109.236 92.456C109.428 91.368 109.524 90.28 109.524 89.192C109.524 86.376 108.66 84.552 106.932 83.72C105.268 82.824 104.436 81.864 104.436 80.84C104.436 79.816 104.852 78.792 105.684 77.768C106.58 76.744 107.668 75.912 108.948 75.272C110.228 74.568 111.508 74.216 112.788 74.216C116.436 74.216 118.26 77.192 118.26 83.144C118.26 85.064 118.1 86.856 117.78 88.52C117.524 90.12 117.204 91.656 116.82 93.128C116.564 94.152 116.34 95.176 116.148 96.2C116.02 97.224 115.956 98.12 115.956 98.888C115.956 102.088 117.524 103.688 120.66 103.688C123.604 103.688 126.356 102.12 128.916 98.984C131.476 95.848 133.588 91.464 135.252 85.832L135.156 84.008C135.028 80.808 135.572 78.376 136.788 76.712C138.068 75.048 139.924 74.216 142.356 74.216C144.468 74.216 145.524 74.888 145.524 76.232C145.524 76.68 145.428 77.256 145.236 77.96C145.108 78.664 144.884 79.496 144.564 80.456C143.924 82.824 143.38 85.352 142.932 88.04C142.484 90.664 142.26 93.096 142.26 95.336C142.26 97.832 142.644 99.912 143.412 101.576C144.18 103.176 145.62 104.264 147.732 104.84C148.308 104.904 148.756 105.096 149.076 105.416C149.46 105.672 149.652 106.248 149.652 107.144C149.652 108.68 149.012 110.184 147.732 111.656C146.452 113.128 144.596 113.864 142.164 113.864C137.492 113.864 135.156 110.568 135.156 103.976C135.156 102.824 135.252 101.096 135.444 98.792L135.252 98.696C131.22 109.064 125.3 114.248 117.492 114.248ZM169.102 114.248C165.198 114.248 162.382 112.968 160.654 110.408C158.99 107.784 158.158 104.424 158.158 100.328C158.158 98.856 158.222 97.416 158.35 96.008C158.542 94.6 158.734 93.192 158.926 91.784C159.118 90.376 159.31 89 159.502 87.656C159.694 86.312 159.854 85.032 159.982 83.816C158.638 84.2 157.294 84.392 155.95 84.392C154.542 84.392 153.838 83.816 153.838 82.664C153.838 81.448 154.382 79.976 155.47 78.248C156.558 76.456 157.902 74.696 159.502 72.968C161.166 71.24 162.798 69.8 164.398 68.648C166.062 67.432 167.47 66.824 168.622 66.824C170.03 66.824 170.734 68.04 170.734 70.472C170.734 71.112 170.67 71.784 170.542 72.488C170.478 73.128 170.382 73.8 170.254 74.504C171.47 74.248 172.686 74.024 173.902 73.832C175.182 73.64 176.398 73.544 177.55 73.544C179.022 73.544 180.142 73.8 180.91 74.312C181.742 74.824 182.158 75.816 182.158 77.288C182.158 78.824 181.774 80.36 181.006 81.896C180.302 83.432 179.502 84.2 178.606 84.2C178.414 84.2 178.094 84.168 177.646 84.104C177.198 84.04 176.654 83.944 176.014 83.816C175.182 83.624 174.126 83.432 172.846 83.24C171.566 83.048 170.03 82.952 168.238 82.952C167.79 84.936 167.374 86.984 166.99 89.096C166.67 91.144 166.51 93 166.51 94.664C166.51 98.376 167.438 100.904 169.294 102.248C171.15 103.592 173.838 104.264 177.358 104.264C178.446 104.264 179.214 104.456 179.661 104.84C180.11 105.16 180.334 105.768 180.334 106.664C180.334 108.776 179.246 110.568 177.07 112.04C174.894 113.512 172.238 114.248 169.102 114.248ZM199.914 114.248C197.546 114.248 195.338 113.896 193.29 113.192C191.242 112.488 189.578 111.496 188.298 110.216C187.018 108.936 186.378 107.4 186.378 105.608C186.378 104.648 186.602 103.752 187.05 102.92C187.562 102.024 188.362 101.576 189.45 101.576C190.026 101.576 190.634 101.736 191.274 102.056C192.426 102.696 193.898 103.304 195.69 103.88C197.482 104.392 199.37 104.648 201.354 104.648C203.594 104.648 205.578 104.328 207.306 103.688C209.034 103.048 209.898 102.152 209.898 101C209.898 100.104 209.226 99.464 207.882 99.08C206.602 98.696 204.426 98.28 201.354 97.832C199.242 97.448 197.194 97 195.21 96.488C193.226 95.976 191.594 95.112 190.314 93.896C189.034 92.616 188.394 90.76 188.394 88.328C188.394 85.96 189.034 83.688 190.314 81.512C191.658 79.272 193.642 77.416 196.266 75.944C198.89 74.472 202.09 73.736 205.866 73.736C207.85 73.736 209.77 73.96 211.626 74.408C213.482 74.856 215.018 75.528 216.234 76.424C217.45 77.32 218.058 78.44 218.058 79.784C218.058 80.936 217.642 81.992 216.81 82.952C216.042 83.912 215.114 84.712 214.026 85.352C213.002 85.928 212.138 86.216 211.434 86.216C210.922 86.216 210.314 85.864 209.61 85.16C208.522 84.264 207.306 83.656 205.962 83.336C204.682 82.952 203.402 82.76 202.122 82.76C200.202 82.76 198.634 83.048 197.418 83.624C196.266 84.2 195.69 84.936 195.69 85.832C195.69 86.664 196.17 87.336 197.13 87.848C198.154 88.36 199.402 88.744 200.874 89C202.346 89.192 203.754 89.384 205.098 89.576C208.81 90.088 211.754 90.984 213.93 92.264C216.106 93.48 217.194 95.656 217.194 98.792C217.194 101.224 216.49 103.656 215.082 106.088C213.738 108.456 211.754 110.408 209.13 111.944C206.57 113.48 203.498 114.248 199.914 114.248Z" fill="#0A0A0A"/>
</svg>
