<svg width="250" height="150" viewBox="0 0 250 150" fill="none" xmlns="http://www.w3.org/2000/svg">
<rect x="24" y="27" width="96" height="96" rx="16" fill="#041229"/>
<path d="M44.16 101.8C43.1467 101.8 42.4533 101.507 42.08 100.92C41.7067 100.333 41.52 99.6933 41.52 99C41.52 95.6933 41.84 91.9067 42.48 87.64C43.1733 83.3733 44 79.1333 44.96 74.92C45.8133 71.3467 46.7467 68.0133 47.76 64.92C48.8267 61.8267 49.76 59.2933 50.56 57.32C51.7333 54.5467 53.0667 52.44 54.56 51C56.1067 49.5067 57.8933 48.76 59.92 48.76C61.4133 48.76 62.7467 49.2667 63.92 50.28C65.0933 51.24 65.7867 53 66 55.56C66.32 58.6533 66.6933 61.7733 67.12 64.92C67.5467 68.0667 68.0267 70.9467 68.56 73.56C69.0933 76.12 69.6533 78.0933 70.24 79.48C70.72 80.7067 71.4133 81.32 72.32 81.32C73.3333 81.32 74.2133 80.68 74.96 79.4C75.6533 78.2267 76.4 76.6267 77.2 74.6C78 72.5733 78.7733 70.44 79.52 68.2C80.32 65.9067 81.0133 63.8267 81.6 61.96C82.2933 59.9333 83.0667 57.9067 83.92 55.88C84.8267 53.8 85.9733 52.0933 87.36 50.76C88.7467 49.3733 90.48 48.68 92.56 48.68C94.48 48.68 95.84 49.3467 96.64 50.68C97.4933 51.96 97.92 54.0133 97.92 56.84C97.92 59.0267 97.84 61.32 97.68 63.72C97.6267 65.1067 97.5467 66.5467 97.44 68.04C97.3867 69.48 97.36 70.9733 97.36 72.52C97.36 74.92 97.4667 77.4533 97.68 80.12C97.9467 82.7867 98.4267 85.2933 99.12 87.64C99.8667 89.9867 100.96 91.96 102.4 93.56C102.827 93.9333 103.2 94.36 103.52 94.84C103.893 95.32 104.08 95.8533 104.08 96.44C104.08 97.7733 103.36 99 101.92 100.12C100.533 101.187 98.9333 101.72 97.12 101.72C95.4667 101.72 94.24 101.187 93.44 100.12C92.64 99.0533 92 97.6133 91.52 95.8C90.9867 93.56 90.6133 91.16 90.4 88.6C90.1867 86.04 90.08 83.56 90.08 81.16C90.08 77.32 90.2133 73.8 90.48 70.6C90.8 67.3467 90.96 64.9467 90.96 63.4C90.96 62.5467 90.88 61.9333 90.72 61.56C90.56 61.1333 90.16 60.92 89.52 60.92C88.7733 60.92 88.1333 61.2667 87.6 61.96C87.12 62.6 86.72 63.5067 86.4 64.68C85.7067 66.92 84.9333 69.32 84.08 71.88C83.2267 74.44 82.32 76.9467 81.36 79.4C80.4533 81.8533 79.4667 84.04 78.4 85.96C77.1733 88.2 75.84 89.72 74.4 90.52C73.0133 91.2667 71.6 91.64 70.16 91.64C67.92 91.64 66.2133 90.9467 65.04 89.56C63.92 88.12 63.0933 86.5467 62.56 84.84C61.8667 82.5467 61.2267 79.56 60.64 75.88C60.0533 72.1467 59.6267 67.96 59.36 63.32C59.2533 61.3467 58.6133 60.36 57.44 60.36C56.16 60.36 55.1467 61.32 54.4 63.24C53.76 65.16 53.1467 67.4267 52.56 70.04C51.9733 72.6 51.4933 75.2933 51.12 78.12C50.8 80.8933 50.64 83.64 50.64 86.36C50.64 88.6533 50.72 90.6533 50.88 92.36C51.0933 94.0667 51.2 95.6667 51.2 97.16C51.2 98.2267 50.7733 99.1067 49.92 99.8C49.12 100.493 48.16 101 47.04 101.32C45.92 101.64 44.96 101.8 44.16 101.8Z" fill="white"/>
<path d="M138.04 102.04C135.373 102.04 133.293 101.267 131.8 99.72C130.36 98.1733 129.64 95.9333 129.64 93C129.64 90.92 129.933 88.7867 130.52 86.6C130.787 85.6933 131 84.7867 131.16 83.88C131.32 82.9733 131.4 82.0667 131.4 81.16C131.4 78.8133 130.68 77.2933 129.24 76.6C127.853 75.8533 127.16 75.0533 127.16 74.2C127.16 73.3467 127.507 72.4933 128.2 71.64C128.947 70.7867 129.853 70.0933 130.92 69.56C131.987 68.9733 133.053 68.68 134.12 68.68C137.16 68.68 138.68 71.16 138.68 76.12C138.68 77.72 138.547 79.2133 138.28 80.6C138.067 81.9333 137.8 83.2133 137.48 84.44C137.267 85.2933 137.08 86.1467 136.92 87C136.813 87.8533 136.76 88.6 136.76 89.24C136.76 91.9067 138.067 93.24 140.68 93.24C143.133 93.24 145.427 91.9333 147.56 89.32C149.693 86.7067 151.453 83.0533 152.84 78.36L152.76 76.84C152.653 74.1733 153.107 72.1467 154.12 70.76C155.187 69.3733 156.733 68.68 158.76 68.68C160.52 68.68 161.4 69.24 161.4 70.36C161.4 70.7333 161.32 71.2133 161.16 71.8C161.053 72.3867 160.867 73.08 160.6 73.88C160.067 75.8533 159.613 77.96 159.24 80.2C158.867 82.3867 158.68 84.4133 158.68 86.28C158.68 88.36 159 90.0933 159.64 91.48C160.28 92.8133 161.48 93.72 163.24 94.2C163.72 94.2533 164.093 94.4133 164.36 94.68C164.68 94.8933 164.84 95.3733 164.84 96.12C164.84 97.4 164.307 98.6533 163.24 99.88C162.173 101.107 160.627 101.72 158.6 101.72C154.707 101.72 152.76 98.9733 152.76 93.48C152.76 92.52 152.84 91.08 153 89.16L152.84 89.08C149.48 97.72 144.547 102.04 138.04 102.04ZM181.048 102.04C177.795 102.04 175.448 100.973 174.008 98.84C172.621 96.6533 171.928 93.8533 171.928 90.44C171.928 89.2133 171.981 88.0133 172.088 86.84C172.248 85.6667 172.408 84.4933 172.568 83.32C172.728 82.1467 172.888 81 173.048 79.88C173.208 78.76 173.341 77.6933 173.448 76.68C172.328 77 171.208 77.16 170.088 77.16C168.915 77.16 168.328 76.68 168.328 75.72C168.328 74.7067 168.781 73.48 169.688 72.04C170.595 70.5467 171.715 69.08 173.048 67.64C174.435 66.2 175.795 65 177.128 64.04C178.515 63.0267 179.688 62.52 180.648 62.52C181.821 62.52 182.408 63.5333 182.408 65.56C182.408 66.0933 182.355 66.6533 182.248 67.24C182.195 67.7733 182.115 68.3333 182.008 68.92C183.021 68.7067 184.035 68.52 185.048 68.36C186.115 68.2 187.128 68.12 188.088 68.12C189.315 68.12 190.248 68.3333 190.888 68.76C191.581 69.1867 191.928 70.0133 191.928 71.24C191.928 72.52 191.608 73.8 190.968 75.08C190.381 76.36 189.715 77 188.968 77C188.808 77 188.541 76.9733 188.168 76.92C187.795 76.8667 187.341 76.7867 186.808 76.68C186.115 76.52 185.235 76.36 184.168 76.2C183.101 76.04 181.821 75.96 180.328 75.96C179.955 77.6133 179.608 79.32 179.288 81.08C179.021 82.7867 178.888 84.3333 178.888 85.72C178.888 88.8133 179.661 90.92 181.208 92.04C182.755 93.16 184.995 93.72 187.928 93.72C188.835 93.72 189.475 93.88 189.848 94.2C190.221 94.4667 190.408 94.9733 190.408 95.72C190.408 97.48 189.501 98.9733 187.688 100.2C185.875 101.427 183.661 102.04 181.048 102.04ZM206.725 102.04C204.752 102.04 202.912 101.747 201.205 101.16C199.498 100.573 198.112 99.7467 197.045 98.68C195.978 97.6133 195.445 96.3333 195.445 94.84C195.445 94.04 195.632 93.2933 196.005 92.6C196.432 91.8533 197.098 91.48 198.005 91.48C198.485 91.48 198.992 91.6133 199.525 91.88C200.485 92.4133 201.712 92.92 203.205 93.4C204.698 93.8267 206.272 94.04 207.925 94.04C209.792 94.04 211.445 93.7733 212.885 93.24C214.325 92.7067 215.045 91.96 215.045 91C215.045 90.2533 214.485 89.72 213.365 89.4C212.298 89.08 210.485 88.7333 207.925 88.36C206.165 88.04 204.458 87.6667 202.805 87.24C201.152 86.8133 199.792 86.0933 198.725 85.08C197.658 84.0133 197.125 82.4667 197.125 80.44C197.125 78.4667 197.658 76.5733 198.725 74.76C199.845 72.8933 201.498 71.3467 203.685 70.12C205.872 68.8933 208.538 68.28 211.685 68.28C213.338 68.28 214.938 68.4667 216.485 68.84C218.032 69.2133 219.312 69.7733 220.325 70.52C221.338 71.2667 221.845 72.2 221.845 73.32C221.845 74.28 221.498 75.16 220.805 75.96C220.165 76.76 219.392 77.4267 218.485 77.96C217.632 78.44 216.912 78.68 216.325 78.68C215.898 78.68 215.392 78.3867 214.805 77.8C213.898 77.0533 212.885 76.5467 211.765 76.28C210.698 75.96 209.632 75.8 208.565 75.8C206.965 75.8 205.658 76.04 204.645 76.52C203.685 77 203.205 77.6133 203.205 78.36C203.205 79.0533 203.605 79.6133 204.405 80.04C205.258 80.4667 206.298 80.7867 207.525 81C208.752 81.16 209.925 81.32 211.045 81.48C214.138 81.9067 216.592 82.6533 218.405 83.72C220.218 84.7333 221.125 86.5467 221.125 89.16C221.125 91.1867 220.538 93.2133 219.365 95.24C218.245 97.2133 216.592 98.84 214.405 100.12C212.272 101.4 209.712 102.04 206.725 102.04Z" fill="#041229"/>
</svg>
