<svg width="48" height="48" viewBox="0 0 48 48" fill="none" xmlns="http://www.w3.org/2000/svg">
<g clip-path="url(#clip0_0_1)">
<g filter="url(#filter0_i_0_1)">
<path d="M0 4C0 1.79086 1.79086 0 4 0H44C46.2091 0 48 1.79086 48 4V40C48 44.4183 44.4183 48 40 48H8C3.58172 48 0 44.4183 0 40V4Z" fill="#48877F"/>
</g>
<g filter="url(#filter1_i_0_1)">
<path d="M0 16H48V44C48 46.2091 46.2091 48 44 48H4C1.79086 48 0 46.2091 0 44V16Z" fill="#FAFAFA"/>
</g>
<rect x="4" y="19" width="12" height="12" rx="2" fill="#D9D9D9"/>
<rect x="18" y="19" width="12" height="12" rx="2" fill="#D9D9D9"/>
<rect x="32" y="19" width="12" height="12" rx="2" fill="#48877F"/>
<rect x="4" y="33" width="12" height="12" rx="2" fill="#D9D9D9"/>
<rect x="18" y="33" width="12" height="12" rx="2" fill="#48877F"/>
<rect x="32" y="33" width="12" height="12" rx="2" fill="#D9D9D9"/>
</g>
<defs>
<filter id="filter0_i_0_1" x="0" y="0" width="48" height="48" filterUnits="userSpaceOnUse" color-interpolation-filters="sRGB">
<feFlood flood-opacity="0" result="BackgroundImageFix"/>
<feBlend mode="normal" in="SourceGraphic" in2="BackgroundImageFix" result="shape"/>
<feColorMatrix in="SourceAlpha" type="matrix" values="0 0 0 0 0 0 0 0 0 0 0 0 0 0 0 0 0 0 127 0" result="hardAlpha"/>
<feMorphology radius="1" operator="erode" in="SourceAlpha" result="effect1_innerShadow_0_1"/>
<feOffset/>
<feGaussianBlur stdDeviation="2"/>
<feComposite in2="hardAlpha" operator="arithmetic" k2="-1" k3="1"/>
<feColorMatrix type="matrix" values="0 0 0 0 0.0392157 0 0 0 0 0.0392157 0 0 0 0 0.0392157 0 0 0 0.25 0"/>
<feBlend mode="normal" in2="shape" result="effect1_innerShadow_0_1"/>
</filter>
<filter id="filter1_i_0_1" x="0" y="15" width="48" height="33" filterUnits="userSpaceOnUse" color-interpolation-filters="sRGB">
<feFlood flood-opacity="0" result="BackgroundImageFix"/>
<feBlend mode="normal" in="SourceGraphic" in2="BackgroundImageFix" result="shape"/>
<feColorMatrix in="SourceAlpha" type="matrix" values="0 0 0 0 0 0 0 0 0 0 0 0 0 0 0 0 0 0 127 0" result="hardAlpha"/>
<feMorphology radius="1" operator="erode" in="SourceAlpha" result="effect1_innerShadow_0_1"/>
<feOffset dy="-1"/>
<feGaussianBlur stdDeviation="2"/>
<feComposite in2="hardAlpha" operator="arithmetic" k2="-1" k3="1"/>
<feColorMatrix type="matrix" values="0 0 0 0 0.627451 0 0 0 0 0.627451 0 0 0 0 0.627451 0 0 0 0.25 0"/>
<feBlend mode="normal" in2="shape" result="effect1_innerShadow_0_1"/>
</filter>
<clipPath id="clip0_0_1">
<rect width="48" height="48" fill="white"/>
</clipPath>
</defs>
</svg>
