<svg width="135" height="40" viewBox="0 0 135 40" fill="none" xmlns="http://www.w3.org/2000/svg">
<g clip-path="url(#clip0_6_254)">
<path d="M124.882 0H9.28489C8.98356 0 8.68222 0 8.37822 0C7.71522 0.00964053 7.05385 0.0684687 6.39956 0.176C5.74949 0.286098 5.12003 0.49472 4.53289 0.794667C3.94231 1.0966 3.40247 1.48888 2.93289 1.95733C2.46339 2.42602 2.07099 2.96603 1.77022 3.55733C1.46664 4.15282 1.25619 4.79136 1.14622 5.45067C1.0357 6.10368 0.976855 6.7644 0.970224 7.42667C0.954224 7.73333 0.954224 8.032 0.954224 8.336V31.6667C0.954224 31.9733 0.954224 32.272 0.970224 32.5787C0.977087 33.2409 1.03593 33.9016 1.14622 34.5547C1.25524 35.2046 1.46297 35.8341 1.76222 36.4213C2.36714 37.6157 3.33409 38.5882 4.52489 39.2C5.11229 39.5005 5.74155 39.7108 6.39156 39.824C7.04592 39.9307 7.70729 39.9886 8.37022 39.9973C8.67422 39.9973 8.97556 39.9973 9.27689 39.9973H125.944C126.245 39.9973 126.552 39.9973 126.853 39.9973C127.514 39.9892 128.174 39.9312 128.826 39.824C129.482 39.7104 130.117 39.5001 130.712 39.2C131.304 38.9012 131.844 38.5086 132.312 38.0373C132.783 37.5694 133.178 37.0293 133.48 36.4373C133.776 35.8494 133.982 35.2201 134.09 34.5707C134.201 33.9175 134.262 33.257 134.274 32.5947C134.274 32.288 134.274 31.9893 134.274 31.6827C134.274 31.3253 134.274 30.968 134.274 30.616V9.41333C134.274 9.05067 134.274 8.69333 134.274 8.34667C134.274 8.04267 134.274 7.73867 134.274 7.43733C134.262 6.775 134.201 6.11449 134.09 5.46133C133.981 4.81217 133.775 4.183 133.48 3.59467C132.875 2.39685 131.91 1.41924 130.72 0.8C130.125 0.50313 129.49 0.297275 128.834 0.189333C128.182 0.0812174 127.522 0.0223844 126.861 0.0133333C126.56 0.0133333 126.253 0.0133333 125.952 0.0133333L124.882 0Z" fill="#A6A6A6"/>
<path d="M9.29024 39.136C8.9889 39.136 8.69557 39.136 8.3969 39.136C7.7787 39.128 7.16193 39.0745 6.55157 38.976C5.98344 38.8795 5.43264 38.6998 4.9169 38.4427C3.89226 37.9175 3.05769 37.0848 2.53024 36.0613C2.27066 35.5457 2.09084 34.9936 1.9969 34.424C1.89494 33.8123 1.84055 33.1935 1.83424 32.5733C1.83424 32.3653 1.81824 31.672 1.81824 31.672V8.336C1.81824 8.336 1.81824 7.65334 1.83424 7.45334C1.83885 6.83232 1.89235 6.21262 1.99424 5.6C2.08696 5.02839 2.26683 4.47439 2.52757 3.95734C2.78677 3.44855 3.12623 2.98483 3.5329 2.584C3.93907 2.17742 4.40598 1.83645 4.9169 1.57333C5.43149 1.31572 5.9815 1.13598 6.5489 1.04C7.16083 0.939369 7.77947 0.884992 8.39957 0.877335H9.29024H125.946H126.848C127.462 0.882594 128.076 0.936092 128.682 1.03733C129.255 1.13134 129.811 1.31114 130.33 1.57067C131.357 2.10042 132.191 2.94014 132.714 3.97067C132.973 4.48379 133.153 5.03311 133.248 5.6C133.35 6.21722 133.407 6.84111 133.418 7.46667C133.418 7.74667 133.418 8.048 133.418 8.34667C133.418 8.71734 133.418 9.06934 133.418 9.41334V30.5867C133.418 30.9467 133.418 31.296 133.418 31.6533C133.418 32.0107 133.418 32.2693 133.418 32.5733C133.409 33.1865 133.352 33.798 133.25 34.4027C133.159 34.9763 132.979 35.5323 132.717 36.0507C132.187 37.0703 131.354 37.9004 130.333 38.4267C129.815 38.6865 129.26 38.8663 128.688 38.96C128.077 39.0591 127.46 39.1126 126.842 39.12C126.554 39.12 126.25 39.12 125.957 39.12H9.29024V39.136Z" fill="black"/>
<path d="M50.4449 27.0027H45.7542L44.6155 30.1333H42.5542L47.1409 18.4373H49.0875L53.7782 30.1333H51.6209L50.4449 27.0027ZM46.3515 25.4027H49.8449L48.5942 22.0533C48.4235 21.592 48.2529 21.08 48.0875 20.52C47.9355 21.016 47.7702 21.52 47.5942 22.0373L46.3515 25.4027Z" fill="white"/>
<path d="M54.6076 23.5547C54.6076 22.9093 54.5862 22.1982 54.5436 21.4213H56.4102C56.4804 21.787 56.5285 22.1566 56.5542 22.528C56.8809 22.1366 57.2883 21.8205 57.7486 21.6014C58.2089 21.3822 58.7112 21.2653 59.2209 21.2587C59.8186 21.2492 60.4055 21.4182 60.9067 21.7441C61.4078 22.07 61.8004 22.5379 62.0343 23.088C62.3623 23.8443 62.5181 24.6641 62.4902 25.488C62.5105 26.3864 62.3283 27.2777 61.9569 28.096C61.6463 28.7751 61.1391 29.3455 60.5009 29.7333C59.8443 30.1128 59.0965 30.3055 58.3382 30.2907C57.7416 30.2903 57.1493 30.1893 56.5862 29.992V33.6L54.5916 33.7707L54.6076 23.5547ZM59.8502 28C60.2556 27.4667 60.4609 26.6667 60.4609 25.6C60.4609 24.6276 60.292 23.9164 59.9542 23.4667C59.8016 23.2576 59.6006 23.0887 59.3684 22.9745C59.1361 22.8602 58.8796 22.804 58.6209 22.8107C58.2483 22.8057 57.8807 22.8976 57.5542 23.0773C57.2075 23.2738 56.892 23.521 56.6182 23.8107V28.4773C56.8392 28.5815 57.072 28.6585 57.3116 28.7067C57.5692 28.7624 57.832 28.791 58.0956 28.792C58.4303 28.812 58.765 28.7504 59.0706 28.6125C59.3763 28.4745 59.6438 28.2643 59.8502 28Z" fill="white"/>
<path d="M63.7035 23.5547C63.7035 22.9093 63.6822 22.1982 63.6395 21.4213H65.5062C65.5785 21.7867 65.6275 22.1564 65.6529 22.528C66.4297 21.6818 67.3186 21.2587 68.3195 21.2587C68.9172 21.2492 69.5041 21.4182 70.0053 21.7441C70.5064 22.07 70.899 22.5379 71.1329 23.088C71.4609 23.8443 71.6167 24.6641 71.5888 25.488C71.6133 26.3853 71.4356 27.2767 71.0688 28.096C70.7575 28.7755 70.2493 29.3459 69.6102 29.7333C68.9537 30.1131 68.2058 30.3059 67.4475 30.2907C66.8509 30.2903 66.2586 30.1893 65.6955 29.992V33.6L63.7009 33.7707L63.7035 23.5547ZM68.9542 28C69.3595 27.4542 69.5622 26.6542 69.5622 25.6C69.5622 24.6276 69.3942 23.9164 69.0582 23.4667C68.9056 23.2576 68.7045 23.0887 68.4723 22.9745C68.2401 22.8602 67.9836 22.804 67.7249 22.8107C67.3523 22.8062 66.9848 22.898 66.6582 23.0773C66.3114 23.2738 65.9959 23.521 65.7222 23.8107V28.4773C65.9435 28.5807 66.1762 28.6577 66.4155 28.7067C66.6732 28.7624 66.9359 28.791 67.1995 28.792C67.5342 28.8116 67.8687 28.7498 68.1743 28.6118C68.4799 28.4739 68.7475 28.264 68.9542 28Z" fill="white"/>
<path d="M75.2555 29.5813C74.4034 29.114 73.7112 28.4014 73.2689 27.536C72.7854 26.5581 72.5474 25.4772 72.5755 24.3867C72.5409 23.2199 72.817 22.065 73.3755 21.04C73.8798 20.1505 74.6373 19.4312 75.5515 18.9733C76.5124 18.5039 77.5703 18.2673 78.6395 18.2827C79.288 18.2798 79.9344 18.3551 80.5649 18.5067C81.1545 18.6455 81.7269 18.8494 82.2715 19.1147L81.7542 20.648C80.8109 20.1722 79.7731 19.9134 78.7169 19.8907C77.9713 19.8782 77.2355 20.0622 76.5835 20.424C75.9649 20.7791 75.4677 21.3126 75.1569 21.9547C74.7994 22.7162 74.6259 23.5511 74.6502 24.392C74.6369 25.1496 74.7691 25.9028 75.0395 26.6107C75.2851 27.2372 75.7169 27.7733 76.2769 28.1467C76.9148 28.5458 77.6584 28.7428 78.4102 28.712C78.7998 28.711 79.1887 28.678 79.5729 28.6133C79.9446 28.5542 80.3099 28.4596 80.6635 28.3307V25.952H77.9595V24.4027H82.6022V29.3333C81.9286 29.6472 81.2232 29.8877 80.4982 30.0507C79.7793 30.2163 79.044 30.3004 78.3062 30.3013C77.2444 30.3268 76.1939 30.0789 75.2555 29.5813Z" fill="white"/>
<path d="M89.6876 30.1333C89.6122 29.7525 89.5658 29.3665 89.5489 28.9787C89.2158 29.3663 88.8088 29.6835 88.3516 29.912C87.8355 30.1734 87.2634 30.3052 86.6849 30.296C86.2116 30.302 85.743 30.2008 85.3143 30C84.9064 29.8087 84.5655 29.4994 84.3356 29.112C84.0808 28.673 83.9543 28.1713 83.9703 27.664C83.9553 27.2792 84.0302 26.8962 84.1889 26.5453C84.3477 26.1945 84.586 25.8854 84.8849 25.6427C85.4929 25.1378 86.5071 24.8862 87.9276 24.888C88.4567 24.8878 88.9851 24.9252 89.5089 25V24.8293C89.5089 24.0613 89.3454 23.5191 89.0183 23.2027C88.6272 22.8662 88.1197 22.6967 87.6049 22.7307C87.1439 22.7363 86.6853 22.799 86.2396 22.9173C85.7981 23.0238 85.3677 23.172 84.9543 23.36L84.6396 21.9093C85.0918 21.7163 85.5615 21.5672 86.0423 21.464C86.6469 21.3273 87.265 21.2593 87.8849 21.2613C88.5417 21.2434 89.1952 21.3605 89.8049 21.6053C90.3412 21.8424 90.7779 22.2593 91.0396 22.784C91.3669 23.4865 91.5196 24.2577 91.4849 25.032V28.4987C91.4849 28.8542 91.5063 29.4 91.5489 30.136L89.6876 30.1333ZM88.4929 28.5333C88.8773 28.3547 89.2226 28.1019 89.5089 27.7893V26.1893C89.0663 26.137 88.6213 26.1076 88.1756 26.1013C87.3525 26.1013 86.7827 26.2347 86.4663 26.5013C86.3119 26.6317 86.1892 26.7955 86.1074 26.9803C86.0257 27.1651 85.987 27.3661 85.9943 27.568C85.9798 27.7425 86.0031 27.918 86.0624 28.0827C86.1218 28.2475 86.2158 28.3975 86.3383 28.5227C86.5982 28.7419 86.9321 28.8535 87.2716 28.8347C87.6963 28.8282 88.114 28.7252 88.4929 28.5333Z" fill="white"/>
<path d="M93.0262 28.0427V17.7493L95.0102 17.5893V27.688C94.982 27.9683 95.0487 28.25 95.1996 28.488C95.2758 28.5699 95.3697 28.6334 95.4741 28.6736C95.5785 28.7138 95.6908 28.7297 95.8022 28.72C95.9831 28.7122 96.1623 28.6817 96.3356 28.6293L96.5703 30.0587C96.347 30.143 96.1155 30.2037 95.8796 30.24C95.625 30.2841 95.3673 30.3073 95.1089 30.3093C93.7205 30.3004 93.0262 29.5449 93.0262 28.0427Z" fill="white"/>
<path d="M97.9889 28.0427V17.7493L99.9756 17.5893V27.688C99.9473 27.9683 100.014 28.25 100.165 28.488C100.241 28.5699 100.335 28.6334 100.439 28.6736C100.544 28.7138 100.656 28.7297 100.768 28.72C100.948 28.7122 101.128 28.6817 101.301 28.6293L101.533 30.0587C101.311 30.143 101.08 30.2038 100.845 30.24C100.589 30.2843 100.331 30.3075 100.072 30.3093C98.6849 30.3004 97.9907 29.5449 97.9889 28.0427Z" fill="white"/>
<path d="M109.693 26.032H103.994C104.085 27.8578 104.954 28.7707 106.602 28.7707C107.025 28.7685 107.447 28.7184 107.858 28.6213C108.279 28.5235 108.69 28.3897 109.088 28.2213L109.525 29.5867C108.498 30.0705 107.374 30.3132 106.24 30.296C105.427 30.3195 104.621 30.1359 103.898 29.7627C103.272 29.4243 102.77 28.8958 102.464 28.2533C102.125 27.509 101.961 26.6973 101.984 25.88C101.961 25.0235 102.136 24.1734 102.493 23.3947C102.797 22.7338 103.29 22.1773 103.909 21.7947C104.543 21.421 105.269 21.2309 106.005 21.2453C106.735 21.2195 107.456 21.4218 108.066 21.824C108.617 22.206 109.043 22.741 109.293 23.3627C109.568 24.0399 109.704 24.7653 109.693 25.496V26.032ZM107.749 24.7653C107.753 24.1992 107.565 23.6484 107.216 23.2027C107.059 23.0274 106.866 22.8887 106.65 22.7965C106.434 22.7044 106.2 22.6609 105.965 22.6693C105.729 22.6645 105.494 22.7094 105.276 22.8013C105.058 22.8932 104.862 23.03 104.701 23.2027C104.325 23.6407 104.095 24.1851 104.042 24.76L107.749 24.7653Z" fill="white"/>
<path d="M111.202 23.6107C111.202 23.1333 111.178 22.4027 111.136 21.424H113.002C113.034 21.6667 113.064 21.9573 113.096 22.2907C113.128 22.624 113.144 22.9013 113.154 23.112C113.355 22.7721 113.583 22.4493 113.837 22.1467C114.057 21.8881 114.323 21.672 114.621 21.5093C114.934 21.3401 115.286 21.2547 115.642 21.2613C115.912 21.2547 116.182 21.288 116.442 21.36L116.192 23.088C115.879 22.9976 115.551 22.9746 115.23 23.0206C114.908 23.0666 114.599 23.1805 114.325 23.3547C113.884 23.6827 113.499 24.0809 113.186 24.5333V30.1333H111.202V23.6107Z" fill="white"/>
<path d="M117.552 33.6987C117.308 33.6593 117.069 33.6014 116.834 33.5253L117.197 32.072C117.365 32.1172 117.535 32.1536 117.706 32.1813C117.898 32.2154 118.093 32.2333 118.288 32.2347C119.176 32.2347 119.838 31.6667 120.272 30.5307L120.402 30.208L117.189 21.424H119.322L120.954 26.3333C121.163 26.9648 121.332 27.6087 121.461 28.2613C121.613 27.632 121.789 27.0027 121.994 26.3733L123.621 21.424H125.629L122.429 30.248C122.187 30.9588 121.859 31.6368 121.45 32.2667C121.139 32.7424 120.713 33.1329 120.213 33.4027C119.676 33.6646 119.084 33.7927 118.488 33.776C118.174 33.7772 117.861 33.7513 117.552 33.6987Z" fill="white"/>
<path d="M42.5542 7.30133H46.1009L46.0022 8.16H43.5889V9.82133H45.8635V10.6213H43.5889V12.4613H46.1302L46.0422 13.3333H42.5542V7.30133Z" fill="white"/>
<path d="M48.5516 10.256L46.6849 7.30133H47.8689L49.1382 9.472L50.4715 7.30133H51.6209L49.7542 10.2187L51.7729 13.3333H50.5729L49.1355 10.96L47.6715 13.3333H46.5222L48.5516 10.256Z" fill="white"/>
<path d="M52.5382 7.30133H54.1649C54.9275 7.30133 55.5124 7.45689 55.9195 7.768C56.122 7.92733 56.2831 8.13321 56.3889 8.36814C56.4948 8.60307 56.5423 8.86008 56.5275 9.11733C56.5388 9.48477 56.4464 9.84797 56.2609 10.1653C56.0798 10.4637 55.8157 10.7028 55.5009 10.8533C55.1511 11.0187 54.7677 11.1008 54.3809 11.0933C54.1123 11.0895 53.8446 11.0619 53.5809 11.0107V13.3333H52.5382V7.30133ZM55.1515 9.99466C55.2653 9.88541 55.354 9.75278 55.4116 9.60592C55.4691 9.45906 55.4941 9.30146 55.4849 9.144C55.4984 8.99309 55.4746 8.84117 55.4156 8.70165C55.3565 8.56212 55.264 8.43929 55.1462 8.344C54.8461 8.16122 54.4968 8.07554 54.1462 8.09866H53.5809V10.232C53.779 10.2677 53.9796 10.2882 54.1809 10.2933C54.5305 10.3196 54.8771 10.2129 55.1515 9.99466Z" fill="white"/>
<path d="M57.5569 7.30133H58.5969V12.4427H61.0929L61.0049 13.3333H57.5569V7.30133Z" fill="white"/>
<path d="M62.6769 13.0373C62.2398 12.7914 61.8868 12.4198 61.6636 11.9707C61.421 11.4729 61.3012 10.9243 61.3143 10.3707C61.3015 9.79219 61.4296 9.21928 61.6876 8.70134C61.9241 8.23447 62.2958 7.84973 62.7543 7.59734C63.2675 7.32853 63.8419 7.19802 64.4209 7.21867C64.9684 7.20398 65.5101 7.33366 65.9916 7.59467C66.426 7.84147 66.7763 8.21309 66.9969 8.66134C67.2347 9.15393 67.3526 9.6958 67.3409 10.2427C67.3554 10.8276 67.2263 11.4072 66.9649 11.9307C66.7262 12.3959 66.355 12.7801 65.8983 13.0347C65.394 13.3029 64.8293 13.437 64.2583 13.424C63.7061 13.438 63.1603 13.3045 62.6769 13.0373ZM65.3756 12.2987C65.6696 12.1039 65.8981 11.8251 66.0316 11.4987C66.1812 11.125 66.2547 10.7251 66.2476 10.3227C66.2543 9.92758 66.1892 9.53454 66.0556 9.16267C65.9359 8.84058 65.7222 8.56186 65.4423 8.36267C65.1175 8.16398 64.7443 8.05884 64.3636 8.05884C63.9829 8.05884 63.6096 8.16398 63.2849 8.36267C62.9901 8.5672 62.7605 8.85236 62.6236 9.18401C62.4719 9.5423 62.3965 9.92829 62.4022 10.3173C62.3958 10.7182 62.4664 11.1165 62.6103 11.4907C62.738 11.833 62.9716 12.1257 63.2771 12.3262C63.5826 12.5266 63.944 12.6244 64.3089 12.6053C64.6875 12.6147 65.0598 12.5076 65.3756 12.2987Z" fill="white"/>
<path d="M68.5009 7.30133H70.3889C70.942 7.26218 71.4925 7.40754 71.9542 7.71467C72.1313 7.85374 72.2723 8.03351 72.3652 8.2387C72.458 8.44389 72.5 8.66846 72.4875 8.89333C72.4938 9.18574 72.4278 9.47517 72.2955 9.736C72.1798 9.96471 72.0182 10.1671 71.8209 10.3307C71.6444 10.4731 71.4464 10.5866 71.2342 10.6667L73.1009 13.3333H71.8875L70.3169 10.9333H69.5515V13.3333H68.5009V7.30133ZM70.1355 10.1547C70.3671 10.1597 70.5966 10.1094 70.8049 10.008C70.9924 9.91792 71.1506 9.77644 71.2609 9.6C71.3709 9.41167 71.4272 9.19676 71.4235 8.97867C71.4343 8.85279 71.4136 8.72622 71.3633 8.61033C71.313 8.49443 71.2348 8.39283 71.1355 8.31467C70.8855 8.15815 70.5925 8.08443 70.2982 8.104H69.5435V10.1653L70.1355 10.1547Z" fill="white"/>
<path d="M73.9142 7.30133H77.4689L77.3676 8.16H74.9676V9.82133H77.2209V10.6213H74.9462V12.4613H77.4876L77.4102 13.3333H73.9142V7.30133Z" fill="white"/>
<path d="M81.3356 7.30133H82.3756V13.3333H81.3356V7.30133Z" fill="white"/>
<path d="M85.1302 8.17066H83.2635L83.3542 7.30133H88.0475L87.9515 8.17066H86.1729V13.3333H85.1302V8.17066Z" fill="white"/>
<path d="M92.5675 13.0373C92.1313 12.7912 91.7791 12.4196 91.5569 11.9707C91.3121 11.4736 91.1913 10.9246 91.2049 10.3707C91.1921 9.79219 91.3203 9.21928 91.5782 8.70134C91.8154 8.23495 92.1869 7.85039 92.6449 7.59734C93.1542 7.3272 93.7246 7.1931 94.3009 7.208C94.8548 7.19309 95.4026 7.32659 95.8875 7.59467C96.3226 7.84068 96.673 8.21251 96.8929 8.66134C97.1316 9.1537 97.2504 9.69559 97.2395 10.2427C97.2544 10.8279 97.1243 11.4078 96.8609 11.9307C96.6229 12.3965 96.2516 12.7808 95.7942 13.0347C95.2902 13.3036 94.7253 13.4377 94.1542 13.424C93.6003 13.4389 93.0525 13.3054 92.5675 13.0373ZM95.2689 12.2987C95.5614 12.103 95.7889 11.8244 95.9222 11.4987C96.0718 11.125 96.1453 10.7251 96.1382 10.3227C96.1449 9.92757 96.0798 9.53454 95.9462 9.16267C95.8276 8.84076 95.6148 8.56201 95.3355 8.36267C95.0104 8.16375 94.6367 8.05848 94.2555 8.05848C93.8744 8.05848 93.5007 8.16375 93.1755 8.36267C92.8807 8.5672 92.6511 8.85236 92.5142 9.184C92.3638 9.54268 92.2884 9.9284 92.2929 10.3173C92.2865 10.7182 92.3571 11.1165 92.5009 11.4907C92.6281 11.8196 92.8499 12.1035 93.1382 12.3067C93.4539 12.515 93.8269 12.6195 94.2049 12.6053C94.5824 12.6131 94.9534 12.5062 95.2689 12.2987Z" fill="white"/>
<path d="M98.3942 7.30133H99.5889L102.573 11.976C102.546 11.5307 102.536 11.1227 102.536 10.7467V7.30133H103.501V13.3333H102.344L99.3142 8.584C99.3436 9.11733 99.3596 9.6 99.3596 10.0187V13.3333H98.3942V7.30133Z" fill="white"/>
<path fill-rule="evenodd" clip-rule="evenodd" d="M27.8875 7.33333H16.8182C11.5995 7.33333 9.69019 9.24266 9.69019 14.4613V25.5387C9.69019 30.7573 11.5995 32.6667 16.8182 32.6667H27.8875C33.1062 32.6667 35.0182 30.7573 35.0182 25.5387V14.4613C35.0235 9.24266 33.1142 7.33333 27.8875 7.33333Z" fill="#C8102E"/>
<path d="M14.7062 20H15.3782V23.3147H14.7062V21.968H13.1889V23.3147H12.5169V20H13.1889V21.3333H14.7062V20ZM18.4929 21.896C18.4929 22.4293 18.2262 22.7227 17.7409 22.7227C17.2556 22.7227 16.9836 22.4293 16.9836 21.8667V20H16.3116V21.8933C16.3116 22.824 16.8289 23.3573 17.7302 23.3573C18.6316 23.3573 19.1649 22.824 19.1649 21.864V20H18.4929V21.896ZM26.2582 22.2773L25.5062 20H24.9542L24.2076 22.28L23.4742 20H22.7596L23.9142 23.3147H24.4716L25.2209 21.1387L25.9729 23.3147H26.5356L27.6902 20H26.9916L26.2582 22.2773ZM28.8929 21.8853H30.1169V21.2853H28.8929V20.608H30.6689V20H28.2316V23.3067H30.7329V22.7093H28.8929V21.8853ZM31.5329 23.3067H32.1969V20H31.5329V23.3067ZM20.4929 22.6213L20.1916 23.3093H19.5062L20.9542 20H21.5462L22.9996 23.3093H22.3062L22.0209 22.624L20.4929 22.6213ZM20.7436 22.024H21.7542L21.2476 20.84L20.7436 22.024Z" fill="white"/>
<path d="M22.3569 15.784C21.2389 15.7833 20.167 15.3389 19.3765 14.5484C18.586 13.7579 18.1416 12.6859 18.1409 11.568H18.7355C18.7355 12.5284 19.1171 13.4495 19.7962 14.1287C20.4753 14.8078 21.3964 15.1893 22.3569 15.1893C23.3173 15.1893 24.2384 14.8078 24.9175 14.1287C25.5967 13.4495 25.9782 12.5284 25.9782 11.568H26.5729C26.5722 12.6859 26.1278 13.7579 25.3373 14.5484C24.5468 15.3389 23.4748 15.7833 22.3569 15.784Z" fill="white"/>
</g>
<defs>
<clipPath id="clip0_6_254">
<rect width="133.333" height="40" fill="white" transform="translate(0.954224)"/>
</clipPath>
</defs>
</svg>
