<svg width="80" height="80" viewBox="0 0 64 64" fill="none" xmlns="http://www.w3.org/2000/svg">
<rect width="64" height="64" fill="#F5F5F5"/>
<rect width="64" height="64" rx="10" fill="#BA7443"/>
<path d="M17.408 47.624C15.84 47.624 14.384 47.4 13.04 46.952C11.728 46.472 10.672 45.816 9.872 44.984C9.072 44.152 8.672 43.176 8.672 42.056C8.672 41.32 8.848 40.68 9.2 40.136C9.552 39.56 10.032 39.272 10.64 39.272C11.024 39.272 11.424 39.416 11.84 39.704C12.64 40.408 13.664 41.032 14.912 41.576C16.192 42.088 17.552 42.344 18.992 42.344C20.88 42.344 22.416 41.976 23.6 41.24C24.816 40.472 25.424 39.448 25.424 38.168C25.424 36.952 24.864 36.072 23.744 35.528C22.624 34.984 21.072 34.472 19.088 33.992C17.616 33.64 16.192 33.192 14.816 32.648C13.472 32.104 12.352 31.352 11.456 30.392C10.592 29.4 10.16 28.088 10.16 26.456C10.16 25.208 10.432 23.976 10.976 22.76C11.52 21.512 12.32 20.376 13.376 19.352C14.432 18.328 15.712 17.512 17.216 16.904C18.72 16.264 20.416 15.944 22.304 15.944C23.712 15.944 24.992 16.104 26.144 16.424C27.328 16.744 28.256 17.192 28.928 17.768C29.632 18.344 29.984 19.048 29.984 19.88C29.984 20.52 29.808 21.08 29.456 21.56C29.104 22.04 28.688 22.424 28.208 22.712C27.728 22.968 27.312 23.096 26.96 23.096C26.64 23.096 26.208 22.952 25.664 22.664C24.768 22.184 23.76 21.816 22.64 21.56C21.552 21.272 20.592 21.128 19.76 21.128C18.192 21.128 16.912 21.48 15.92 22.184C14.96 22.856 14.48 23.656 14.48 24.584C14.48 25.608 15.088 26.472 16.304 27.176C17.552 27.848 19.776 28.568 22.976 29.336C25.152 29.912 26.848 30.712 28.064 31.736C29.28 32.728 29.888 34.312 29.888 36.488C29.888 38.44 29.36 40.264 28.304 41.96C27.28 43.656 25.824 45.032 23.936 46.088C22.08 47.112 19.904 47.624 17.408 47.624ZM42.8068 47.48C42.4228 47.48 42.0228 47.416 41.6068 47.288C41.2228 47.16 40.9028 46.856 40.6468 46.376C40.3908 45.896 40.2628 45.16 40.2628 44.168C40.2628 43.464 40.3108 42.6 40.4068 41.576C40.5348 40.552 40.6948 39.448 40.8868 38.264C41.1428 36.664 41.3508 34.984 41.5108 33.224C41.7028 31.432 41.7988 29.608 41.7988 27.752C41.7988 26.248 41.7188 24.952 41.5588 23.864C41.4308 22.744 41.2548 21.88 41.0308 21.272C39.8148 21.304 38.6628 21.384 37.5748 21.512C36.4868 21.64 35.3828 21.848 34.2628 22.136C33.9748 22.168 33.7188 22.216 33.4948 22.28C33.3028 22.312 33.1108 22.328 32.9188 22.328C32.6308 22.328 32.4228 22.28 32.2948 22.184C32.1668 22.056 32.1028 21.768 32.1028 21.32C32.1028 20.776 32.1828 20.216 32.3428 19.64C32.5028 19.032 32.7428 18.52 33.0628 18.104C33.3828 17.656 33.7508 17.336 34.1668 17.144C34.6148 16.92 35.0948 16.776 35.6068 16.712C36.4068 16.616 37.4308 16.536 38.6788 16.472C39.9268 16.376 41.2868 16.296 42.7588 16.232C44.2628 16.168 45.7348 16.136 47.1748 16.136C49.5108 16.136 51.1748 16.152 52.1668 16.184C53.1908 16.216 53.8788 16.264 54.2308 16.328C54.6788 16.392 54.9828 16.536 55.1428 16.76C55.3348 16.952 55.4308 17.272 55.4308 17.72C55.4308 18.584 55.0468 19.448 54.2788 20.312C53.9588 20.696 53.6228 21 53.2708 21.224C52.9188 21.416 52.4548 21.496 51.8788 21.464C51.3668 21.4 50.6148 21.352 49.6228 21.32C48.6308 21.288 47.5268 21.272 46.3108 21.272C46.2788 22.392 46.1828 23.704 46.0228 25.208C45.8948 26.68 45.7348 28.168 45.5428 29.672C45.3508 31.144 45.1908 32.616 45.0628 34.088C44.9348 35.56 44.8708 36.904 44.8708 38.12C44.8708 39.24 44.9668 40.232 45.1588 41.096C45.3828 41.928 45.8148 42.648 46.4548 43.256C46.9028 43.704 47.1268 44.184 47.1268 44.696C47.1268 45.4 46.7268 46.04 45.9268 46.616C45.1268 47.192 44.0868 47.48 42.8068 47.48Z" fill="black"/>
</svg>
