<svg width="250" height="150" viewBox="0 0 250 150" fill="none" xmlns="http://www.w3.org/2000/svg">
<path d="M84.9844 42.75C85.4219 42.75 85.8281 42.9219 86.2031 43.2656C86.6094 43.5781 86.8125 44 86.8125 44.5312C86.8125 45.1875 86.5156 45.6875 85.9219 46.0312C85.8906 46.0625 85.4531 46.3594 84.6094 46.9219C83.7969 47.4844 82.8281 48.3594 81.7031 49.5469C84.0469 49.8281 86.4375 49.9688 88.875 49.9688C91.25 49.9688 93.4062 49.8125 95.3438 49.5C97.3125 49.1562 99.0625 48.7031 100.594 48.1406C102.156 47.5469 103.5 46.8594 104.625 46.0781C105.781 45.2969 106.734 44.4375 107.484 43.5C107.672 43.2812 107.891 43.1094 108.141 42.9844C108.391 42.8281 108.656 42.75 108.938 42.75C109.438 42.75 109.844 42.9375 110.156 43.3125C110.5 43.6875 110.672 44.0938 110.672 44.5312C110.672 44.9688 110.562 45.3125 110.344 45.5625C109.594 46.5625 108.594 47.5469 107.344 48.5156C106.094 49.4531 104.578 50.2969 102.797 51.0469C101.016 51.7969 98.9688 52.4062 96.6562 52.875C94.3438 53.3125 91.7656 53.5312 88.9219 53.5312C87.2969 53.5312 85.6719 53.4688 84.0469 53.3438C82.4219 53.1875 80.7969 52.9844 79.1719 52.7344C78.4531 53.7656 77.7812 54.9219 77.1562 56.2031C76.5625 57.4844 76.0781 58.8906 75.7031 60.4219C75.0469 63.0469 74.6719 65.8281 74.5781 68.7656C74.5156 71.7031 74.4531 74.7031 74.3906 77.7656C74.3594 80.7969 74.2188 83.8281 73.9688 86.8594C73.7188 89.8594 73.125 92.7656 72.1875 95.5781C71.4688 97.7031 70.5 99.6719 69.2812 101.484C68.0938 103.297 66.625 104.875 64.875 106.219C63.1562 107.531 61.1719 108.562 58.9219 109.312C56.7031 110.094 54.2031 110.484 51.4219 110.484C46.8594 110.484 42.7344 109.578 39.0469 107.766C35.3594 105.953 32.1562 103.094 29.4375 99.1875C29.3438 99.0312 29.2188 98.8125 29.0625 98.5312C28.9062 98.25 28.8281 97.9688 28.8281 97.6875C28.8281 97.25 28.9844 96.8281 29.2969 96.4219C29.6094 96.0156 30.0469 95.8125 30.6094 95.8125C30.9531 95.8125 31.2656 95.9062 31.5469 96.0938C31.8281 96.25 32.0469 96.4531 32.2031 96.7031C34.4844 100.203 37.1562 102.797 40.2188 104.484C43.2812 106.141 47 106.969 51.375 106.969C53.6875 106.969 55.7656 106.688 57.6094 106.125C59.4531 105.531 61.0781 104.703 62.4844 103.641C63.9219 102.547 65.1562 101.219 66.1875 99.6562C67.2188 98.0938 68.0781 96.3125 68.7656 94.3125C69.5156 92.125 69.9844 89.6094 70.1719 86.7656C70.3906 83.8906 70.5312 80.9062 70.5938 77.8125C70.6562 74.6875 70.7656 71.5625 70.9219 68.4375C71.1094 65.3125 71.5469 62.3594 72.2344 59.5781C72.5781 58.1094 73.0312 56.75 73.5938 55.5C74.1562 54.25 74.75 53.0938 75.375 52.0312C71.1875 51.1875 67.0156 50.125 62.8594 48.8438C58.7344 47.5312 54.6875 46.2812 50.7188 45.0938C46.7812 43.875 42.9688 42.8281 39.2812 41.9531C35.625 41.0781 32.1719 40.6406 28.9219 40.6406C25.9531 40.6406 23.2031 41.0625 20.6719 41.9062C18.1719 42.75 16 43.9375 14.1562 45.4688C12.3438 47 10.9219 48.8438 9.89062 51C8.89062 53.1562 8.39062 55.5469 8.39062 58.1719C8.39062 60.0781 8.71875 61.8281 9.375 63.4219C10.0625 65.0156 11 66.4062 12.1875 67.5938C13.375 68.75 14.7812 69.6562 16.4062 70.3125C18.0312 70.9688 19.8125 71.2969 21.75 71.2969C23.7812 71.2969 25.5938 71 27.1875 70.4062C28.7812 69.7812 30.1875 69.0156 31.4062 68.1094C32.625 67.2031 33.6562 66.2188 34.5 65.1562C35.375 64.0938 36.0781 63.1094 36.6094 62.2031C37.1719 61.2656 37.5781 60.5 37.8281 59.9062C38.1094 59.2812 38.25 58.9688 38.25 58.9688C38.375 58.625 38.5938 58.3438 38.9062 58.125C39.2188 57.9062 39.5625 57.7969 39.9375 57.7969C40.4688 57.7969 40.8906 57.9844 41.2031 58.3594C41.5469 58.7031 41.7188 59.1094 41.7188 59.5781C41.7188 59.6719 41.7031 59.7656 41.6719 59.8594C41.6719 59.9219 41.6562 60 41.625 60.0938C41.5938 60.1562 41.4219 60.5781 41.1094 61.3594C40.7969 62.1094 40.3125 63.0312 39.6562 64.125C39 65.1875 38.1562 66.3438 37.125 67.5938C36.0938 68.8438 34.8438 70.0156 33.375 71.1094C31.9062 72.1719 30.2031 73.0625 28.2656 73.7812C26.3594 74.4688 24.1719 74.8125 21.7031 74.8125C19.3281 74.8125 17.1094 74.3906 15.0469 73.5469C13.0156 72.7031 11.2344 71.5469 9.70312 70.0781C8.20312 68.6094 7.01562 66.8594 6.14062 64.8281C5.29688 62.7969 4.875 60.5781 4.875 58.1719C4.875 54.9844 5.48438 52.1094 6.70312 49.5469C7.92188 46.9531 9.60938 44.7344 11.7656 42.8906C13.9219 41.0469 16.4688 39.625 19.4062 38.625C22.3438 37.625 25.5312 37.125 28.9688 37.125C31.4688 37.125 33.9844 37.3438 36.5156 37.7812C39.0469 38.2188 41.6094 38.7969 44.2031 39.5156C46.8281 40.2344 49.4844 41.0312 52.1719 41.9062C54.8594 42.7812 57.5781 43.6719 60.3281 44.5781C63.1094 45.4531 65.9219 46.2812 68.7656 47.0625C71.6406 47.8438 74.5625 48.4844 77.5312 48.9844C78.3125 48.0156 79.0781 47.1562 79.8281 46.4062C80.6094 45.6562 81.2969 45.0469 81.8906 44.5781C82.5156 44.0781 83.0312 43.7031 83.4375 43.4531C83.8438 43.1719 84.0781 43.0156 84.1406 42.9844C84.4531 42.8281 84.7344 42.75 84.9844 42.75ZM99.8906 103.828C100.359 102.891 100.953 101.734 101.672 100.359C102.422 98.9531 103.188 97.5469 103.969 96.1406C104.781 94.7344 105.562 93.4062 106.312 92.1562C107.094 90.9062 107.75 89.9531 108.281 89.2969C109.188 88.2031 110.125 87.4219 111.094 86.9531C112.062 86.4844 112.953 86.25 113.766 86.25C114.578 86.25 115.266 86.4219 115.828 86.7656C116.422 87.1094 116.906 87.5781 117.281 88.1719C117.656 88.7344 117.938 89.4062 118.125 90.1875C118.312 90.9375 118.406 91.75 118.406 92.625C118.406 93.125 118.375 93.7812 118.312 94.5938C118.281 95.4062 118.234 96.2812 118.172 97.2188C118.141 98.1562 118.094 99.125 118.031 100.125C118 101.125 117.969 102.062 117.938 102.938C118.406 102 118.938 100.969 119.531 99.8438C120.125 98.6875 120.719 97.5469 121.312 96.4219C121.938 95.2969 122.531 94.25 123.094 93.2812C123.656 92.2812 124.172 91.4688 124.641 90.8438C125.984 89 127.234 87.7656 128.391 87.1406C129.578 86.5156 130.625 86.2031 131.531 86.2031C132.594 86.2031 133.469 86.4062 134.156 86.8125C134.844 87.1875 135.375 87.6875 135.75 88.3125C136.156 88.9062 136.438 89.5781 136.594 90.3281C136.75 91.0781 136.828 91.7969 136.828 92.4844C136.828 93.5469 136.75 94.6562 136.594 95.8125C136.438 96.9688 136.359 98.3438 136.359 99.9375C136.359 100.594 136.391 101.25 136.453 101.906C136.516 102.562 136.641 103.141 136.828 103.641C137.047 104.141 137.375 104.547 137.812 104.859C138.25 105.172 138.844 105.328 139.594 105.328C140.406 105.328 141.203 105.125 141.984 104.719C142.766 104.281 143.516 103.719 144.234 103.031C144.953 102.344 145.625 101.562 146.25 100.688C146.906 99.8125 147.5 98.9375 148.031 98.0625C148.562 97.1875 149.031 96.3594 149.438 95.5781C149.844 94.7656 150.172 94.0781 150.422 93.5156C150.578 93.1719 150.797 92.9062 151.078 92.7188C151.359 92.5312 151.672 92.4375 152.016 92.4375C152.547 92.4375 152.969 92.6406 153.281 93.0469C153.625 93.4219 153.797 93.8281 153.797 94.2656C153.797 94.4844 153.75 94.7031 153.656 94.9219C153.531 95.1719 153.281 95.7031 152.906 96.5156C152.531 97.2969 152.031 98.2031 151.406 99.2344C150.781 100.234 150.047 101.297 149.203 102.422C148.391 103.547 147.484 104.594 146.484 105.562C145.484 106.5 144.406 107.281 143.25 107.906C142.094 108.5 140.875 108.797 139.594 108.797C138.219 108.797 137.094 108.547 136.219 108.047C135.375 107.578 134.688 106.938 134.156 106.125C133.656 105.312 133.312 104.375 133.125 103.312C132.938 102.25 132.844 101.141 132.844 99.9844C132.844 98.4531 132.922 97.0469 133.078 95.7656C133.234 94.4531 133.312 93.4375 133.312 92.7188C133.312 91.9375 133.234 91.3438 133.078 90.9375C132.953 90.5312 132.781 90.25 132.562 90.0938C132.375 89.9062 132.188 89.8125 132 89.8125C131.812 89.7812 131.672 89.7656 131.578 89.7656C130.828 89.7656 130.031 90.1875 129.188 91.0312C128.375 91.8438 127.531 92.9375 126.656 94.3125C125.781 95.6875 124.875 97.25 123.938 99C123.031 100.75 122.109 102.531 121.172 104.344C120.641 105.344 120.188 106.172 119.812 106.828C119.469 107.484 119.125 108 118.781 108.375C118.469 108.75 118.156 109.016 117.844 109.172C117.531 109.328 117.188 109.406 116.812 109.406C116 109.406 115.375 109.125 114.938 108.562C114.531 108 114.328 107.266 114.328 106.359C114.328 105.891 114.344 105.266 114.375 104.484C114.406 103.703 114.438 102.844 114.469 101.906C114.5 100.969 114.547 100 114.609 99C114.672 98 114.719 97.0469 114.75 96.1406C114.781 95.2031 114.812 94.375 114.844 93.6562C114.875 92.9375 114.891 92.3906 114.891 92.0156C114.891 91.2031 114.75 90.625 114.469 90.2812C114.188 89.9062 113.859 89.7188 113.484 89.7188C113.141 89.7188 112.75 89.8438 112.312 90.0938C111.906 90.3438 111.422 90.8281 110.859 91.5469C110.422 92.1094 109.859 92.9375 109.172 94.0312C108.516 95.0938 107.812 96.2812 107.062 97.5938C106.312 98.9062 105.562 100.25 104.812 101.625C104.094 103 103.469 104.234 102.938 105.328C102.281 106.641 101.625 107.531 100.969 108C100.312 108.5 99.6719 108.75 99.0469 108.75C98.1406 108.75 97.4688 108.484 97.0312 107.953C96.5938 107.391 96.375 106.656 96.375 105.75C96.375 105.656 96.3906 105.094 96.4219 104.062C96.4844 103.031 96.5469 101.781 96.6094 100.312C96.6719 98.8125 96.7344 97.2188 96.7969 95.5312C96.8906 93.8438 96.9688 92.2656 97.0312 90.7969C97.0625 90.0156 97.0312 89.2969 96.9375 88.6406C96.8438 87.9844 96.7188 87.5938 96.5625 87.4688C96.3125 87.5312 95.8125 88.1094 95.0625 89.2031C94.3438 90.2969 93.4219 92.2031 92.2969 94.9219C92.1406 95.2656 91.9062 95.5312 91.5938 95.7188C91.2812 95.9062 90.9531 96 90.6094 96C90.0781 96 89.6562 95.8281 89.3438 95.4844C89.0312 95.1094 88.875 94.6875 88.875 94.2188C88.875 94 88.9219 93.7656 89.0156 93.5156C90.4219 90.1719 91.7656 87.7188 93.0469 86.1562C94.3281 84.5625 95.5781 83.7656 96.7969 83.7656C97.5156 83.7656 98.1094 83.9375 98.5781 84.2812C99.0781 84.5938 99.4688 85.0156 99.75 85.5469C100.031 86.0469 100.234 86.625 100.359 87.2812C100.484 87.9375 100.547 88.5781 100.547 89.2031C100.547 91.9844 100.469 94.5312 100.312 96.8438C100.188 99.1562 100.047 101.484 99.8906 103.828ZM177.141 95.0156C176.797 95.7344 176.359 96.5938 175.828 97.5938C175.328 98.5625 174.75 99.5781 174.094 100.641C173.438 101.703 172.703 102.766 171.891 103.828C171.078 104.859 170.188 105.797 169.219 106.641C168.281 107.453 167.266 108.109 166.172 108.609C165.109 109.141 163.969 109.406 162.75 109.406C160.875 109.406 159.266 108.828 157.922 107.672C156.578 106.516 155.438 105 154.5 103.125C153.562 101.25 152.797 99.125 152.203 96.75C151.641 94.3438 151.203 91.9062 150.891 89.4375C150.578 86.9375 150.359 84.5156 150.234 82.1719C150.141 79.8281 150.094 77.75 150.094 75.9375C150.094 73.3125 150.172 70.5938 150.328 67.7812C150.516 64.9688 150.797 62.2188 151.172 59.5312C151.547 56.8438 152.016 54.2969 152.578 51.8906C153.172 49.4844 153.859 47.375 154.641 45.5625C155.453 43.75 156.375 42.3125 157.406 41.25C158.438 40.1875 159.609 39.6562 160.922 39.6562C161.953 39.6562 162.875 39.9062 163.688 40.4062C164.531 40.875 165.234 41.6562 165.797 42.75C166.359 43.8438 166.797 45.2656 167.109 47.0156C167.422 48.7656 167.578 50.9062 167.578 53.4375C167.578 56.5625 167.25 59.7969 166.594 63.1406C165.938 66.4531 165.047 69.7969 163.922 73.1719C162.797 76.5469 161.469 79.9219 159.938 83.2969C158.406 86.6406 156.766 89.9062 155.016 93.0938C155.797 97.0625 156.844 100.188 158.156 102.469C159.469 104.719 161.047 105.844 162.891 105.844C164.141 105.844 165.344 105.359 166.5 104.391C167.656 103.391 168.719 102.219 169.688 100.875C170.656 99.5312 171.5 98.1719 172.219 96.7969C172.969 95.3906 173.547 94.2656 173.953 93.4219C174.109 93.1094 174.328 92.875 174.609 92.7188C174.891 92.5312 175.203 92.4375 175.547 92.4375C176.078 92.4375 176.5 92.625 176.812 93C177.156 93.375 177.328 93.7969 177.328 94.2656C177.328 94.4531 177.266 94.7031 177.141 95.0156ZM153.656 76.1719C153.656 78.1719 153.703 80.0938 153.797 81.9375C153.891 83.7812 154.016 85.5469 154.172 87.2344C155.484 84.7031 156.734 82.0156 157.922 79.1719C159.109 76.2969 160.156 73.4062 161.062 70.5C161.969 67.5625 162.688 64.6562 163.219 61.7812C163.781 58.875 164.062 56.1094 164.062 53.4844C164.062 49.7969 163.766 47.1562 163.172 45.5625C162.578 43.9688 161.781 43.1719 160.781 43.1719C160.125 43.1719 159.484 43.625 158.859 44.5312C158.266 45.4375 157.703 46.6719 157.172 48.2344C156.641 49.7969 156.156 51.6406 155.719 53.7656C155.281 55.8906 154.906 58.1719 154.594 60.6094C154.312 63.0469 154.078 65.5938 153.891 68.25C153.734 70.9062 153.656 73.5469 153.656 76.1719ZM210.234 94.9219C210.109 95.1719 209.844 95.7031 209.438 96.5156C209.062 97.2969 208.562 98.2031 207.938 99.2344C207.344 100.266 206.641 101.344 205.828 102.469C205.016 103.594 204.109 104.625 203.109 105.562C202.109 106.5 201.031 107.281 199.875 107.906C198.719 108.5 197.5 108.797 196.219 108.797C194.406 108.797 192.875 108.219 191.625 107.062C190.406 105.906 189.516 104.453 188.953 102.703C187.891 104.484 186.625 105.906 185.156 106.969C183.688 108 182.219 108.516 180.75 108.516C179.594 108.516 178.547 108.312 177.609 107.906C176.672 107.469 175.875 106.875 175.219 106.125C174.562 105.344 174.047 104.438 173.672 103.406C173.328 102.375 173.156 101.25 173.156 100.031C173.156 97.5938 173.562 95.4531 174.375 93.6094C175.219 91.7344 176.281 90.1719 177.562 88.9219C178.844 87.6719 180.25 86.7344 181.781 86.1094C183.344 85.4844 184.844 85.1719 186.281 85.1719C187.25 85.1719 188.141 85.3125 188.953 85.5938C189.766 85.8438 190.453 86.125 191.016 86.4375C191.609 86.75 192.062 87.0469 192.375 87.3281C192.688 87.5781 192.859 87.7188 192.891 87.75C193.234 88.1562 193.406 88.5781 193.406 89.0156C193.406 89.4844 193.234 89.9062 192.891 90.2812C192.547 90.625 192.141 90.7969 191.672 90.7969C191.172 90.7969 190.75 90.625 190.406 90.2812C190.344 90.2188 190.203 90.1094 189.984 89.9531C189.766 89.7656 189.469 89.5781 189.094 89.3906C188.719 89.2031 188.266 89.0469 187.734 88.9219C187.234 88.7656 186.656 88.6875 186 88.6875C185.031 88.6875 184 88.9062 182.906 89.3438C181.812 89.7812 180.812 90.4688 179.906 91.4062C179 92.3125 178.234 93.4688 177.609 94.875C177.016 96.25 176.719 97.8906 176.719 99.7969C176.719 100.391 176.781 101 176.906 101.625C177.031 102.219 177.25 102.766 177.562 103.266C177.875 103.766 178.297 104.172 178.828 104.484C179.359 104.797 180.016 104.953 180.797 104.953C181.359 104.953 182 104.766 182.719 104.391C183.469 104.016 184.172 103.438 184.828 102.656C185.516 101.875 186.125 100.891 186.656 99.7031C187.219 98.5156 187.609 97.1094 187.828 95.4844C187.891 95.0469 188.094 94.6875 188.438 94.4062C188.781 94.0938 189.188 93.9375 189.656 93.9375C190.094 93.9375 190.469 94.1094 190.781 94.4531C191.125 94.7969 191.312 95.1875 191.344 95.625C191.375 96.2188 191.438 97.0625 191.531 98.1562C191.625 99.2188 191.828 100.281 192.141 101.344C192.484 102.406 192.984 103.328 193.641 104.109C194.297 104.891 195.203 105.281 196.359 105.281C197.109 105.281 197.844 105.078 198.562 104.672C199.312 104.266 200.031 103.734 200.719 103.078C201.438 102.391 202.109 101.625 202.734 100.781C203.391 99.9062 203.984 99.0312 204.516 98.1562C205.047 97.2812 205.516 96.4375 205.922 95.625C206.328 94.8125 206.672 94.1094 206.953 93.5156C207.109 93.1719 207.328 92.9062 207.609 92.7188C207.922 92.5312 208.25 92.4375 208.594 92.4375C209.125 92.4375 209.547 92.6406 209.859 93.0469C210.203 93.4219 210.375 93.8281 210.375 94.2656C210.375 94.4844 210.328 94.7031 210.234 94.9219ZM246.516 95.0156C246.422 95.2031 246.219 95.5938 245.906 96.1875C245.594 96.75 245.188 97.4219 244.688 98.2031C244.188 98.9531 243.594 99.7656 242.906 100.641C242.219 101.484 241.469 102.266 240.656 102.984C239.844 103.703 238.969 104.297 238.031 104.766C237.094 105.234 236.125 105.469 235.125 105.469C233.5 105.469 232.125 105.188 231 104.625C229.875 104.031 228.953 103.375 228.234 102.656C227.734 103.75 227.125 104.75 226.406 105.656C225.688 106.562 224.891 107.344 224.016 108C223.141 108.688 222.203 109.219 221.203 109.594C220.234 109.969 219.234 110.156 218.203 110.156C216.297 110.156 214.672 109.594 213.328 108.469C211.984 107.344 210.859 105.844 209.953 103.969C209.078 102.062 208.391 99.8594 207.891 97.3594C207.391 94.8594 207 92.2344 206.719 89.4844C206.469 86.7344 206.312 83.9531 206.25 81.1406C206.188 78.3281 206.156 75.6562 206.156 73.125C206.156 68.2812 206.297 64.0938 206.578 60.5625C206.859 57 207.234 53.9844 207.703 51.5156C208.203 49.0156 208.766 47 209.391 45.4688C210.047 43.9062 210.734 42.7031 211.453 41.8594C212.172 40.9844 212.906 40.3906 213.656 40.0781C214.406 39.7656 215.141 39.6094 215.859 39.6094C217.016 39.6094 218.031 39.9531 218.906 40.6406C219.812 41.3281 220.562 42.2969 221.156 43.5469C221.781 44.7656 222.25 46.25 222.562 48C222.875 49.75 223.031 51.6719 223.031 53.7656C223.031 57.1094 222.672 60.5625 221.953 64.125C221.234 67.6875 220.297 71.25 219.141 74.8125C218.016 78.3438 216.75 81.8281 215.344 85.2656C213.938 88.6719 212.547 91.9062 211.172 94.9688C211.359 96.5 211.641 97.9688 212.016 99.375C212.391 100.75 212.875 101.984 213.469 103.078C214.062 104.141 214.766 105 215.578 105.656C216.391 106.281 217.328 106.594 218.391 106.594C219.453 106.594 220.453 106.297 221.391 105.703C222.328 105.078 223.141 104.281 223.828 103.312C224.516 102.312 225.047 101.188 225.422 99.9375C225.828 98.6875 226.031 97.4062 226.031 96.0938C226.031 95.2188 225.938 94.3438 225.75 93.4688C225.594 92.5625 225.328 91.7656 224.953 91.0781C224.609 90.3594 224.172 89.7812 223.641 89.3438C223.109 88.9062 222.469 88.6875 221.719 88.6875C221.156 88.6875 220.719 88.8125 220.406 89.0625C220.094 89.2812 219.859 89.5469 219.703 89.8594C219.547 90.1406 219.453 90.4219 219.422 90.7031C219.391 90.9844 219.375 91.1719 219.375 91.2656C219.375 91.7031 219.469 92.1406 219.656 92.5781C219.844 93.0156 220.203 93.4062 220.734 93.75C221.266 94.125 221.531 94.6406 221.531 95.2969C221.531 95.8281 221.344 96.25 220.969 96.5625C220.625 96.875 220.234 97.0312 219.797 97.0312C219.172 97.0312 218.609 96.8438 218.109 96.4688C217.641 96.0938 217.234 95.625 216.891 95.0625C216.547 94.4688 216.281 93.8438 216.094 93.1875C215.906 92.5312 215.812 91.9219 215.812 91.3594C215.812 90.4531 215.969 89.625 216.281 88.875C216.594 88.0938 217.016 87.4375 217.547 86.9062C218.109 86.3438 218.734 85.9219 219.422 85.6406C220.141 85.3281 220.891 85.1719 221.672 85.1719C223.016 85.1719 224.172 85.4844 225.141 86.1094C226.141 86.7344 226.969 87.5625 227.625 88.5938C228.281 89.625 228.766 90.7969 229.078 92.1094C229.391 93.4219 229.547 94.75 229.547 96.0938C229.547 96.875 229.5 97.6406 229.406 98.3906C229.531 98.6406 229.734 98.9688 230.016 99.375C230.297 99.7812 230.672 100.172 231.141 100.547C231.609 100.922 232.172 101.25 232.828 101.531C233.484 101.812 234.25 101.953 235.125 101.953C235.875 101.953 236.641 101.672 237.422 101.109C238.234 100.516 239 99.7969 239.719 98.9531C240.469 98.0781 241.156 97.1562 241.781 96.1875C242.406 95.1875 242.922 94.2656 243.328 93.4219C243.484 93.1094 243.703 92.875 243.984 92.7188C244.266 92.5312 244.578 92.4375 244.922 92.4375C245.453 92.4375 245.875 92.625 246.188 93C246.531 93.375 246.703 93.7969 246.703 94.2656C246.703 94.4531 246.641 94.7031 246.516 95.0156ZM210.281 88.9688C211.344 86.3438 212.422 83.5938 213.516 80.7188C214.609 77.8125 215.594 74.8594 216.469 71.8594C217.344 68.8594 218.062 65.8281 218.625 62.7656C219.188 59.7031 219.469 56.6875 219.469 53.7188C219.469 52.5938 219.406 51.4219 219.281 50.2031C219.188 48.9531 219 47.8125 218.719 46.7812C218.438 45.75 218.047 44.8906 217.547 44.2031C217.078 43.5156 216.469 43.1719 215.719 43.1719C215.469 43.1719 215.141 43.3438 214.734 43.6875C214.359 44 213.953 44.5781 213.516 45.4219C213.078 46.2344 212.641 47.375 212.203 48.8438C211.766 50.3125 211.359 52.1875 210.984 54.4688C210.641 56.7188 210.344 59.4375 210.094 62.625C209.875 65.8125 209.766 69.5625 209.766 73.875C209.766 75.3125 209.781 76.7812 209.812 78.2812C209.844 79.75 209.875 81.1562 209.906 82.5C209.969 83.8438 210.031 85.0781 210.094 86.2031C210.156 87.3281 210.219 88.25 210.281 88.9688Z" fill="#141414"/>
</svg>
